<?xml version="1.0" encoding="UTF-8"?>
<svg id="Layer_2" xmlns="http://www.w3.org/2000/svg" viewBox="0 0 60.7 65">
  <defs>
    <style>
      .cls-1 {
        fill: #fff;
      }

      .cls-2 {
        stroke: #fff;
        stroke-miterlimit: 10;
      }
    </style>
  </defs>
  <g id="Layer_1-2" data-name="Layer_1">
    <g>
      <g>
        <polygon class="cls-1" points="51.67 51.7 51.67 47.44 55.94 47.44 55.94 9.04 51.67 9.04 51.67 4.77 9.04 4.77 9.04 9.04 4.78 9.04 4.77 47.44 9.04 47.44 9.04 51.7 51.67 51.7"/>
        <path class="cls-2" d="M9.04.5v4.27h42.63V.5H9.04ZM51.67,4.77v4.27h4.27v-4.27h-4.27ZM55.94,9.04v38.4h-4.27v4.27H9.04v-4.27h-4.27V9.04H.51v46.93h4.26v4.27h4.26v4.27h42.63v-4.27h4.27v-4.27h4.26V9.04h-4.26ZM4.78,9.04h4.26v-4.27h-4.27v4.27ZM17.56,17.57v17.07h4.27v-17.07h-4.27ZM38.88,17.57v17.07h4.26v-17.07h-4.26Z"/>
      </g>
      <rect x="51.67" y="4.77" width="4.27" height="4.27"/>
      <polygon points="51.67 4.77 51.67 1.03 9.04 .93 9.04 4.77 51.67 4.77"/>
      <rect x="4.77" y="4.77" width="4.27" height="4.27"/>
      <polyline points="55.94 9.04 55.94 49.22 59.61 49.22 59.71 9.04"/>
      <polygon points="4.78 9.04 1.03 9.04 1.03 48.09 4.12 48.24 4.77 48.09 4.78 9.04"/>
      <polygon class="cls-1" points="0 8.56 0 7.87 3.56 7.87 3.56 3.72 7.85 3.72 7.85 0 8.58 0 8.58 4.31 4.29 4.31 4.29 8.56 0 8.56"/>
      <polygon class="cls-1" points="60.7 8.58 60.7 7.9 57.14 7.9 57.14 3.75 52.85 3.75 52.85 .03 52.12 .03 52.12 4.33 56.41 4.33 56.41 8.58 60.7 8.58"/>
    </g>
  </g>
</svg>